# xmcd
#
# Track frame offsets: 
#        150
#        23408
#        45705
#        63443
#        84556
#
# Disc length: 1429 seconds
#
# Revision: 0
# Processed by: cddbd v1.5.2PL0 Copyright (c) Steve Scherf et al.
# Submitted via: ExactAudioCopy v0.99pb4
#
DISCID=33059305
DTITLE=Tina Arena - Songs of Love and Loss - Deluxe Edition Bonus CD
DYEAR=2008
DGENRE=Pop
TTITLE0=Wasn't It Good (Live)
TTITLE1=Les Trois Cloches (The Three Bells) (Live)
TTITLE2=You Made Me Find Myself (Live)
TTITLE3=Now I Can Dance (Live)
TTITLE4=Sorrento Moon (Live)
EXTD=
EXTT0=
EXTT1=
EXTT2=
EXTT3=
EXTT4=
PLAYORDER=
